<svg width="301" height="72" viewBox="0 0 301 72" fill="none" xmlns="http://www.w3.org/2000/svg">
<path d="M36.2 3.29999C39.9 5.49999 42.7 8.4 44.9 12C47 15.7 48.1 19.7 48.1 24.1C48.1 28.5 47 32.6 44.9 36.2C42.7 39.9 39.8 42.7 36.2 44.9C32.5 47.1 28.5 48.2 24.1 48.2C19.7 48.2 15.6 47.1 12 44.9C8.3 42.7 5.5 39.8 3.3 36.2C1.1 32.6 0 28.6 0 24.1C0 19.7 1.1 15.6 3.3 12C5.5 8.4 8.4 5.49999 12 3.29999C15.6 1.09999 19.7 0 24.1 0C28.5 0 32.5 1.09999 36.2 3.29999ZM33 43.5C35.7 41.5 37.8 38.8 39.4 35.4C41 32 41.8 28.2 41.8 24.1C41.8 19.9 41 16.1 39.4 12.8C37.8 9.39999 35.6 6.69999 33 4.59999C30.3 2.59999 27.3 1.59999 24.1 1.59999C20.9 1.59999 17.9 2.59999 15.2 4.59999C12.5 6.59999 10.4 9.39999 8.8 12.8C7.2 16.2 6.4 20 6.4 24.1C6.4 28.2 7.2 32 8.8 35.4C10.4 38.8 12.5 41.5 15.2 43.5C17.9 45.5 20.9 46.6 24.1 46.6C27.3 46.6 30.3 45.6 33 43.5Z" fill="white"/>
<path d="M84.7 45.9999C85.1 46.1999 85.5 46.3999 86.2 46.5999C86.8 46.7999 87.5 46.8999 88.4 46.8999V48.1999H75.3V46.8999C76.1 46.8999 76.8 46.7999 77.4 46.6999C78 46.5999 78.4 46.3999 78.8 46.1999L76.2 38.9999H58.5L55.8 46.2999C56.2 46.4999 56.6 46.5999 57.2 46.6999C57.7 46.7999 58.4 46.8999 59.1 46.8999V48.1999H50.3V46.8999C51.3 46.8999 52.1 46.7999 52.7 46.5999C53.3 46.3999 53.8 46.1999 54.1 45.9999C54.4 45.7999 54.6 45.6999 54.6 45.5999L68 8.8999H75V10.1999C74.2 10.1999 73.4 10.2999 72.9 10.3999C72.3 10.5999 71.8 10.6999 71.4 10.8999L84 45.6999C84.1 45.6999 84.3 45.8999 84.7 45.9999ZM75.6 37.6999L67.3 14.8999L59 37.6999H75.6Z" fill="white"/>
<path d="M130.6 48.2H121.4L104.7 31.4V45.7C104.9 45.9 105.4 46.1 106.1 46.4C106.8 46.7 107.7 46.9 109 46.9V48.2H95.3V46.9C96.5 46.9 97.5 46.7 98.2 46.4C98.9 46.1 99.3 45.9 99.5 45.7V11.4C99.3 11.2 98.8 11 98.2 10.7C97.5 10.4 96.5 10.3 95.3 10.3V9H109V10.3C107.8 10.3 106.8 10.4 106.1 10.7C105.4 11 104.9 11.2 104.7 11.4V27.3L121.1 10.9C120.7 10.7 120.3 10.6 119.7 10.5C119.2 10.4 118.5 10.3 117.8 10.3V9H126.6V10.3C125.6 10.3 124.7 10.4 124.1 10.6C123.4 10.8 123 11 122.6 11.2L107.2 26.6L126.3 45.6C126.3 45.6 126.5 45.8 126.8 46C127.1 46.2 127.6 46.4 128.3 46.6C128.9 46.8 129.7 46.9 130.7 46.9V48.2H130.6Z" fill="white"/>
<path d="M168.1 42.6V48.2H136.8V46.9C138 46.9 139 46.8 139.7 46.5C140.4 46.2 140.9 46 141.1 45.8V11.4C140.9 11.2 140.4 11 139.7 10.7C139 10.4 138 10.3 136.8 10.3V9H150.5V10.3C149.3 10.3 148.3 10.4 147.6 10.7C146.9 11 146.4 11.2 146.2 11.4V46.9H165.6C165.8 46.7 166 46.2 166.3 45.5C166.6 44.8 166.7 43.8 166.7 42.6H168.1Z" fill="white"/>
<path d="M209.4 45.9999C209.8 46.1999 210.2 46.3999 210.8 46.5999C211.4 46.7999 212.1 46.8999 213 46.8999V48.1999H199.9V46.8999C200.7 46.8999 201.4 46.7999 202 46.6999C202.6 46.5999 203 46.3999 203.4 46.1999L200.8 38.9999H183.3L180.6 46.2999C181 46.4999 181.4 46.5999 182 46.6999C182.5 46.7999 183.2 46.8999 183.9 46.8999V48.1999H175.1V46.8999C176.1 46.8999 176.9 46.7999 177.5 46.5999C178.1 46.3999 178.6 46.1999 179 45.9999C179.3 45.7999 179.5 45.6999 179.5 45.5999L192.9 8.8999H199.7V10.1999C198.9 10.1999 198.1 10.2999 197.6 10.3999C197 10.5999 196.5 10.6999 196.1 10.8999L208.7 45.5999C208.8 45.6999 209 45.8999 209.4 45.9999ZM200.3 37.6999L192 14.8999L183.7 37.6999H200.3Z" fill="white"/>
<path d="M253.5 10.7C252.8 11 252.3 11.2 252.1 11.4V48.2H246.2L225.6 12.6V45.8C225.8 46 226.3 46.2 227 46.5C227.7 46.8 228.6 47 229.9 47V48.3H220V47C221.2 47 222.2 46.8 222.9 46.5C223.6 46.2 224 46 224.3 45.8V11.4C224.1 11.2 223.6 11 222.9 10.7C222.2 10.4 221.2 10.3 220 10.3V9H229.4L250.8 46V11.4C250.6 11.2 250.1 11 249.5 10.7C248.8 10.4 247.8 10.3 246.6 10.3V9H256.4V10.3C255.1 10.2 254.2 10.4 253.5 10.7Z" fill="white"/>
<path d="M298.5 36.1999C296.8 39.7999 294.6 42.6999 291.8 44.7999C289 46.8999 285.9 48.0999 282.4 48.1999H263.3V46.5999C264.8 46.5999 266 46.3999 266.8 45.9999C267.6 45.5999 268.2 45.3999 268.5 45.0999V3.3999C268.2 3.1999 267.7 2.89991 266.8 2.49991C265.9 2.09991 264.8 1.99991 263.3 1.99991V0.399902H282.4C285.9 0.499902 289 1.6999 291.8 3.7999C294.6 5.8999 296.8 8.7999 298.5 12.3999C300.2 15.9999 301 19.9999 301 24.2999C301 28.5999 300.1 32.5999 298.5 36.1999ZM288.6 43.3999C290.4 41.3999 291.9 38.6999 293 35.3999C294.1 32.0999 294.6 28.3999 294.6 24.2999C294.6 20.2999 294.1 16.5999 293 13.1999C291.9 9.89991 290.4 7.19991 288.6 5.19991C286.7 3.19991 284.7 2.09991 282.4 1.99991H274.8V46.5999H282.4C284.7 46.3999 286.7 45.3999 288.6 43.3999Z" fill="white"/>
<path d="M19 68.8998C18.6 69.6998 18.2 70.2998 17.6 70.6998C17 71.1998 16.3 71.3998 15.6 71.3998H11.6V71.0998C11.9 71.0998 12.2 71.0998 12.3 70.9998C12.5 70.8998 12.6 70.8998 12.7 70.7998V61.8998C12.6 61.8998 12.5 61.7998 12.3 61.6998C12.1 61.5998 11.9 61.5998 11.6 61.5998V61.2998H15.6C16.3 61.2998 17 61.5998 17.6 61.9998C18.2 62.4998 18.7 63.0998 19 63.7998C19.4 64.5998 19.5 65.3998 19.5 66.2998C19.5 67.2998 19.3 68.0998 19 68.8998ZM16.9 70.3998C17.3 69.9998 17.6 69.3998 17.8 68.6998C18 67.9998 18.1 67.1998 18.1 66.2998C18.1 65.3998 18 64.6998 17.8 63.8998C17.6 63.1998 17.2 62.5998 16.9 62.1998C16.5 61.7998 16.1 61.5998 15.6 61.4998H14V70.9998H15.6C16 71.0998 16.5 70.7998 16.9 70.3998Z" fill="white"/>
<path d="M36.5 61.2998V62.7998H36.2C36.2 62.5998 36.2 62.3998 36.1 62.1998C36 61.9998 36 61.8998 35.9 61.7998C35.9 61.6998 35.8 61.6998 35.8 61.6998H32V66.2998H34.8C34.8 66.1998 34.9 66.0998 34.9 65.8998C34.9 65.6998 35 65.4998 35 65.2998H35.3V67.5998H35C35 67.3998 35 67.1998 34.9 66.9998C34.9 66.7998 34.8 66.6998 34.8 66.5998H32V71.1998H35.9C35.9 71.1998 35.9 71.0998 36 71.0998C36.1 71.0998 36.1 70.8998 36.2 70.6998C36.2 70.4998 36.3 70.2998 36.3 70.0998H36.6V71.5998H29.7V71.2998C30 71.2998 30.3 71.2998 30.4 71.1998C30.6 71.0998 30.7 71.0998 30.7 70.9998V62.0998C30.7 62.0998 30.5 61.9998 30.4 61.8998C30.2 61.7998 30 61.7998 29.7 61.7998V61.4998H36.5V61.2998Z" fill="white"/>
<path d="M53.9 61.5999V63.8998H53.5C53.5 63.4998 53.4 63.0998 53.1 62.6998C52.8 62.3998 52.5 62.0998 52 61.8998C51.5 61.6998 51 61.5999 50.5 61.5999C50.1 61.5999 49.8 61.6998 49.5 61.7998C49.2 61.8998 49 62.0998 48.9 62.2998C48.8 62.4998 48.7 62.6998 48.6 62.8998C48.5 63.0998 48.5 63.2998 48.5 63.4998C48.5 63.7998 48.6 63.9998 48.8 64.2998C49 64.4998 49.3 64.7998 49.7 64.9998C50.1 65.1998 50.4 65.4998 50.9 65.6998C51.3 65.8998 51.6 66.0998 52 66.3998C52.3 66.5998 52.7 66.8999 53 67.0999C53.3 67.3999 53.5 67.5998 53.7 67.8998C53.9 68.1998 54 68.4998 54 68.7998C54 69.2998 53.9 69.6999 53.5 70.0999C53.2 70.4999 52.8 70.7998 52.3 70.9998C51.8 71.1998 51.2 71.3998 50.6 71.3998C50 71.3998 49.5 71.2999 49 71.0999C48.5 70.8999 48.1 70.5998 47.8 70.1998C47.8 70.2998 47.7 70.3999 47.7 70.5999C47.7 70.6999 47.6 70.8999 47.6 71.0999H47.3V68.7998H47.6C47.6 69.1998 47.7 69.5998 48 69.8998C48.3 70.1998 48.6 70.4998 49.1 70.6998C49.5 70.8998 50 70.9998 50.6 70.9998C51 70.9998 51.3 70.8998 51.6 70.7998C51.9 70.6998 52.1 70.4998 52.2 70.2998C52.3 70.0998 52.4 69.8998 52.5 69.6998C52.6 69.4998 52.6 69.2998 52.6 69.1998C52.6 68.8998 52.5 68.5998 52.3 68.2998C52.1 67.9998 51.8 67.7998 51.4 67.4998C51 67.2998 50.6 66.9998 50.2 66.7998C49.8 66.5998 49.5 66.3999 49.1 66.0999C48.8 65.8999 48.4 65.5998 48.2 65.3998C48 65.1998 47.7 64.8999 47.5 64.5999C47.3 64.2999 47.2 63.9998 47.2 63.6998C47.2 63.1998 47.3 62.7998 47.7 62.3998C48.1 61.9998 48.4 61.6998 48.9 61.4998C49.4 61.2998 50 61.0999 50.6 61.0999C51.2 61.0999 51.7 61.1998 52.2 61.3998C52.7 61.5998 53.1 61.8998 53.4 62.2998C53.4 62.1998 53.5 62.0998 53.5 61.8998C53.5 61.7998 53.6 61.5998 53.6 61.3998H53.9V61.5999Z" fill="white"/>
<path d="M71.7 61.2998V62.7998H71.4C71.4 62.5998 71.4 62.3998 71.3 62.1998C71.2 61.9998 71.2 61.8998 71.1 61.7998C71.1 61.6998 71 61.6998 71 61.6998H67.1V66.2998H70C70 66.1998 70.1 66.0998 70.1 65.8998C70.1 65.6998 70.2 65.4998 70.2 65.2998H70.5V67.5998H70.2C70.2 67.3998 70.2 67.1998 70.1 66.9998C70.1 66.7998 70 66.6998 70 66.5998H67.2V71.1998H71C71 71.1998 71 71.0998 71.1 71.0998C71.2 71.0998 71.2 70.8998 71.3 70.6998C71.3 70.4998 71.4 70.2998 71.4 70.0998H71.7V71.5998H64.8V71.2998C65.1 71.2998 65.4 71.2998 65.5 71.1998C65.7 71.0998 65.8 71.0998 65.8 70.9998V62.0998C65.8 62.0998 65.6 61.9998 65.5 61.8998C65.3 61.7998 65.1 61.7998 64.8 61.7998V61.4998H71.7V61.2998Z" fill="white"/>
<path d="M91.6 71.3998H89.2L86.1 66.4998H84.9V70.7998C84.9 70.7998 85.1 70.8998 85.3 70.9998C85.5 71.0998 85.7 71.0998 86 71.0998V71.3998H82.5V71.0998C82.8 71.0998 83.1 71.0998 83.2 70.9998C83.4 70.8998 83.5 70.8998 83.6 70.7998V61.8998C83.5 61.8998 83.4 61.7998 83.2 61.6998C83 61.5998 82.8 61.5998 82.5 61.5998V61.2998H83.3C83.8 61.2998 84.5 61.2998 85.2 61.2998C85.9 61.2998 86.5 61.2998 87.1 61.2998C87.6 61.2998 87.9 61.2998 87.9 61.2998C88.4 61.2998 88.8 61.3998 89.2 61.6998C89.6 61.8998 89.9 62.2998 90.1 62.6998C90.3 63.0998 90.5 63.4998 90.5 63.9998C90.5 64.4998 90.4 64.8998 90.2 65.2998C90 65.6998 89.7 65.9998 89.3 66.1998C88.9 66.3998 88.5 66.4998 88 66.5998L90.9 70.9998C91 70.9998 91.1 71.0998 91.2 71.0998C91.3 71.0998 91.5 71.0998 91.6 71.0998V71.3998ZM84.9 66.1998H87C87.6 66.0998 88.1 65.8998 88.5 65.4998C88.9 65.0998 89.1 64.5998 89.1 63.9998C89.1 63.3998 88.9 62.8998 88.5 62.3998C88.1 61.9998 87.6 61.6998 86.9 61.6998H84.8V66.1998H84.9Z" fill="white"/>
<path d="M110.3 61.5998C110.1 61.5998 109.9 61.5998 109.7 61.6998C109.5 61.6998 109.4 61.7998 109.3 61.8998L105.8 71.4998H104.4L100.9 61.9998C100.9 61.9998 100.8 61.9998 100.8 61.8998C100.7 61.8998 100.6 61.7998 100.4 61.6998C100.2 61.6998 100 61.5998 99.8 61.5998V61.2998H102.1L105.6 70.9998L109.1 61.3998H110.2V61.5998H110.3Z" fill="white"/>
<path d="M127.6 61.2998V62.7998H127.3C127.3 62.5998 127.3 62.3998 127.2 62.1998C127.1 61.9998 127.1 61.8998 127 61.7998C127 61.6998 126.9 61.6998 126.9 61.6998H123V66.2998H125.8C125.8 66.1998 125.9 66.0998 125.9 65.8998C125.9 65.6998 126 65.4998 126 65.2998H126.3V67.5998H126C126 67.3998 126 67.1998 125.9 66.9998C125.9 66.7998 125.8 66.6998 125.8 66.5998H123V71.1998H126.9C126.9 71.1998 126.9 71.0998 127 71.0998C127.1 71.0998 127.1 70.8998 127.2 70.6998C127.2 70.4998 127.3 70.2998 127.3 70.0998H127.6V71.5998H120.7V71.2998C121 71.2998 121.3 71.2998 121.4 71.1998C121.6 71.0998 121.7 71.0998 121.7 70.9998V62.0998C121.7 62.0998 121.5 61.9998 121.4 61.8998C121.2 61.7998 121 61.7998 120.7 61.7998V61.4998H127.6V61.2998Z" fill="white"/>
<path d="M145.8 68.8998C145.4 69.6998 145 70.2998 144.4 70.6998C143.8 71.1998 143.1 71.3998 142.4 71.3998H138.4V71.0998C138.7 71.0998 139 71.0998 139.1 70.9998C139.3 70.8998 139.4 70.8998 139.5 70.7998V61.8998C139.4 61.8998 139.3 61.7998 139.1 61.6998C138.9 61.5998 138.7 61.5998 138.4 61.5998V61.2998H142.4C143.1 61.2998 143.8 61.5998 144.4 61.9998C145 62.4998 145.5 63.0998 145.8 63.7998C146.2 64.5998 146.3 65.3998 146.3 66.2998C146.4 67.2998 146.2 68.0998 145.8 68.8998ZM143.7 70.3998C144.1 69.9998 144.4 69.3998 144.6 68.6998C144.8 67.9998 144.9 67.1998 144.9 66.2998C144.9 65.3998 144.8 64.6998 144.6 63.8998C144.4 63.1998 144 62.5998 143.7 62.1998C143.3 61.7998 142.9 61.5998 142.4 61.4998H140.8V70.9998H142.4C142.9 71.0998 143.3 70.7998 143.7 70.3998Z" fill="white"/>
<path d="M179.6 68.6998C179.2 69.3998 178.7 69.9998 178 70.4998L178.1 70.5998C178.5 70.7998 178.8 70.9998 179.2 71.1998C179.5 71.3998 179.9 71.4998 180.2 71.4998H178.8C178.6 71.4998 178.4 71.3998 178.2 71.2998C178 71.1998 177.7 71.0998 177.5 70.8998C176.8 71.2998 176 71.3998 175.2 71.3998C174.3 71.3998 173.4 71.1998 172.6 70.6998C171.8 70.1998 171.2 69.5998 170.8 68.8998C170.3 68.0998 170.1 67.2998 170.1 66.3998C170.1 65.4998 170.3 64.5998 170.8 63.7998C171.3 62.9998 171.9 62.3998 172.6 61.9998C173.4 61.4998 174.2 61.2998 175.2 61.2998C176.1 61.2998 177 61.4998 177.8 61.9998C178.6 62.4998 179.2 63.0998 179.6 63.7998C180.1 64.5998 180.3 65.3998 180.3 66.3998C180.2 67.1998 180 67.9998 179.6 68.6998ZM176.9 70.5998C176.6 70.3998 176.3 70.2998 176 70.0998C175.7 69.9998 175.4 69.8998 175.1 69.8998C174.8 69.8998 174.7 69.8998 174.7 69.8998C174.8 69.8998 174.9 69.8998 175.1 69.8998C175.3 69.8998 175.6 69.8998 175.8 69.8998C176.1 69.8998 176.3 69.8998 176.4 69.8998C176.6 69.8998 176.9 69.9998 177.3 70.1998C177.8 69.7998 178.1 69.1998 178.4 68.5998C178.7 67.8998 178.8 67.1998 178.8 66.4998C178.8 65.5998 178.6 64.7998 178.3 64.0998C178 63.3998 177.5 62.7998 177 62.3998C176.4 61.9998 175.8 61.7998 175.1 61.7998C174.4 61.7998 173.8 61.9998 173.2 62.3998C172.6 62.7998 172.2 63.3998 171.9 64.0998C171.6 64.7998 171.4 65.5998 171.4 66.4998C171.4 67.3998 171.6 68.1998 171.9 68.8998C172.2 69.5998 172.7 70.1998 173.2 70.5998C173.8 70.9998 174.4 71.1998 175.1 71.1998C175.8 71.0998 176.3 70.8998 176.9 70.5998Z" fill="white"/>
<path d="M199.4 61.5997C199.1 61.5997 198.8 61.5997 198.6 61.6997C198.4 61.7997 198.3 61.7997 198.2 61.8997V68.8997C198.2 69.3997 198.1 69.7997 197.9 70.1997C197.7 70.5997 197.3 70.8997 196.9 71.0997C196.5 71.2997 195.9 71.3997 195.3 71.3997C194.8 71.3997 194.3 71.2997 193.9 71.1997C193.4 71.0997 193 70.8997 192.6 70.5997C192.2 70.3997 191.9 70.0997 191.7 69.7997C191.5 69.4997 191.4 69.1997 191.4 68.7997V61.7997C191.3 61.7997 191.2 61.6997 191 61.5997C190.8 61.4997 190.6 61.4997 190.2 61.4997V61.1997H193.7V61.4997C193.4 61.4997 193.1 61.4997 193 61.5997C192.8 61.6997 192.7 61.6997 192.6 61.7997V68.9997C192.6 69.3997 192.7 69.6997 193 69.9997C193.2 70.2997 193.6 70.4997 194 70.6997C194.4 70.8997 194.8 70.9997 195.3 70.9997C195.8 70.9997 196.2 70.8997 196.6 70.6997C197 70.4997 197.3 70.2997 197.5 69.9997C197.7 69.6997 197.9 69.3997 197.9 68.9997V61.7997C197.9 61.7997 197.7 61.6997 197.6 61.5997C197.4 61.4997 197.2 61.4997 196.9 61.4997V61.1997H199.4V61.5997Z" fill="white"/>
<path d="M216.9 70.8998C217 70.8998 217.1 70.9998 217.3 70.9998C217.5 70.9998 217.6 71.0999 217.9 71.0999V71.3998H214.5V71.0999C214.7 71.0999 214.9 71.0998 215 70.9998C215.1 70.8998 215.3 70.8998 215.4 70.8998L214.7 68.9998H210.2L209.5 70.8998C209.6 70.8998 209.7 70.9998 209.9 70.9998C210 70.9998 210.2 70.9998 210.4 70.9998V71.2998H208.1V70.9998C208.3 70.9998 208.6 70.9998 208.7 70.8998C208.9 70.8998 209 70.7998 209.1 70.6998C209.2 70.6998 209.2 70.5999 209.2 70.5999L212.7 61.0999H214.5V61.3998C214.3 61.3998 214.1 61.3998 213.9 61.4998C213.7 61.4998 213.6 61.5999 213.5 61.5999L216.8 70.5999C216.8 70.7999 216.8 70.7998 216.9 70.8998ZM214.6 68.6998L212.5 62.7998L210.4 68.6998H214.6Z" fill="white"/>
<path d="M236.4 69.9998V71.3998H228.3V71.0998C228.6 71.0998 228.9 71.0998 229.1 70.9998C229.3 70.8998 229.4 70.8998 229.5 70.7998V61.8998C229.4 61.8998 229.3 61.7998 229.1 61.6998C228.9 61.5998 228.7 61.5998 228.3 61.5998V61.2998H231.8V61.5998C231.5 61.5998 231.2 61.5998 231 61.6998C230.8 61.7998 230.7 61.7998 230.6 61.8998V71.0998H235.6C235.6 71.0998 235.7 70.8998 235.8 70.6998C235.9 70.4998 235.9 70.2998 235.9 69.9998H236.4Z" fill="white"/>
<path d="M249.6 61.6998C249.4 61.7998 249.3 61.7998 249.2 61.8998V70.7998C249.2 70.7998 249.4 70.8998 249.6 70.9998C249.8 71.0998 250 71.0998 250.3 71.0998V71.3998H246.8V71.0998C247.1 71.0998 247.4 71.0998 247.5 70.9998C247.7 70.8998 247.8 70.8998 247.8 70.7998V61.8998C247.8 61.8998 247.6 61.7998 247.5 61.6998C247.3 61.5998 247.1 61.5998 246.8 61.5998V61.2998H250.3V61.5998C250 61.5998 249.7 61.6998 249.6 61.6998Z" fill="white"/>
<path d="M268.7 61.2998V62.6998H268.4C268.4 62.3998 268.4 62.0998 268.3 61.9998C268.2 61.7998 268.2 61.6998 268.1 61.5998H265.4V70.7998C265.5 70.7998 265.6 70.8998 265.8 70.9998C266 71.0998 266.2 71.0998 266.6 71.0998V71.3998H263V71.0998C263.3 71.0998 263.6 71.0998 263.7 70.9998C263.8 70.8998 264 70.8998 264.1 70.7998V61.5998H261.4C261.4 61.6998 261.3 61.7998 261.2 61.9998C261.1 62.1998 261.1 62.3998 261.1 62.6998H260.8V61.2998H268.7Z" fill="white"/>
<path d="M289.5 61.2998V61.5998C289.2 61.5998 289 61.5998 288.8 61.6998C288.6 61.7998 288.5 61.7998 288.4 61.8998L285 67.7998V70.7998C285.1 70.7998 285.2 70.8998 285.4 70.9998C285.6 71.0998 285.8 71.0998 286.2 71.0998V71.3998H282.7V71.0998C283 71.0998 283.3 71.0998 283.4 70.9998C283.6 70.8998 283.7 70.8998 283.8 70.7998V67.7998L280.4 61.9998C280.4 61.9998 280.3 61.8998 280.2 61.8998C280.1 61.8998 280 61.7998 279.8 61.7998C279.6 61.7998 279.5 61.6998 279.2 61.6998V61.3998H282.6V61.6998C282.4 61.6998 282.3 61.6998 282.1 61.6998C282 61.6998 281.8 61.7998 281.8 61.7998L285 67.2998L288.2 61.7998C288.1 61.7998 288 61.6998 287.8 61.6998C287.7 61.6998 287.5 61.6998 287.3 61.6998V61.3998H289.5V61.2998Z" fill="white"/>
</svg>
