<svg width="60" height="55" viewBox="0 0 60 55" fill="none" xmlns="http://www.w3.org/2000/svg">
<g clip-path="url(#clip0_40_13750)">
<path d="M57.5627 39.1429C56.6303 37.3065 54.2748 36.5124 52.1974 37.3892C49.5638 38.4976 46.9466 39.6392 44.313 40.7642C42.3828 41.5914 40.4526 42.4351 38.5223 43.2458C38.1134 43.4112 37.6554 43.5105 37.2137 43.527C33.9913 43.5435 30.7688 43.5435 27.5463 43.5435C27.4482 43.5435 27.35 43.527 27.2355 43.5105C27.2355 42.8983 27.2355 42.3027 27.2355 41.641C27.4973 41.641 27.7426 41.641 27.9716 41.641C30.8669 41.641 33.7623 41.641 36.6576 41.641C36.9356 41.641 37.2301 41.6244 37.5082 41.5748C38.3751 41.3928 38.9804 40.6484 38.9804 39.7715C38.9804 38.8947 38.4078 38.1337 37.5409 37.9351C37.2792 37.8855 37.0174 37.869 36.7557 37.869C34.4656 37.869 32.1919 37.8524 29.9018 37.869C28.9858 37.8855 28.1352 37.687 27.301 37.2899C25.4526 36.4131 23.5878 35.5859 21.7394 34.7256C20.6434 34.2127 19.5147 33.948 18.3042 33.9811C16.7176 34.0142 15.1309 33.9811 13.5114 33.9811C13.5114 33.3359 13.5114 32.7403 13.5114 32.1282C13.5932 32.1117 13.6587 32.062 13.7405 32.062C15.5725 32.062 17.4209 31.9959 19.253 32.1117C20.2345 32.1778 21.2323 32.4591 22.1319 32.8396C24.2094 33.6999 26.2214 34.7091 28.2824 35.6024C28.7568 35.801 29.2966 35.9333 29.8037 35.9499C32.1428 35.983 34.4984 35.9664 36.8375 35.9664C39.2748 35.9664 40.7633 37.4057 40.8942 39.8708C40.8942 39.937 40.9106 39.9866 40.9433 40.1189C41.4013 39.9204 41.8593 39.755 42.301 39.5565C45.3271 38.266 48.337 36.959 51.3631 35.6852C55.1254 34.1135 58.9367 36.0326 60 40.0528C59.2802 40.4498 58.5442 40.8469 57.8244 41.2274C50.2999 45.2641 42.759 49.2843 35.2344 53.3376C32.7154 54.6942 30.1309 54.9258 27.4318 54.049C23.964 52.924 20.4962 51.7824 17.012 50.674C16.5867 50.5416 16.145 50.4755 15.7034 50.4589C15 50.4258 14.2803 50.4424 13.5278 50.4424C13.5278 49.7972 13.5278 49.185 13.5278 48.4075C14.8691 48.5398 16.2432 48.4736 17.5027 48.8376C21.0687 49.8799 24.5692 51.0876 28.1025 52.2457C30.1799 52.924 32.2083 52.7916 34.1548 51.7493C41.8757 47.6134 49.5965 43.4608 57.3337 39.3248C57.3991 39.2587 57.4809 39.1925 57.5627 39.1429Z" fill="white"/>
<path d="M30.8997 0.049619C31.3904 -0.0992766 31.5867 0.181971 31.7666 0.59557C32.6663 2.76283 33.5823 4.93009 34.4657 7.09735C34.6129 7.44477 34.7764 7.59366 35.1527 7.6433C37.4264 7.908 39.6838 8.22233 41.9575 8.47049C42.5463 8.53667 42.7754 8.80137 42.9389 9.33078C43.1189 9.86019 42.7917 10.0422 42.5136 10.2903C40.7961 11.8124 39.0622 13.3344 37.3282 14.8399C37.0502 15.0881 36.952 15.2866 37.0338 15.6837C37.5082 17.9998 37.9171 20.3325 38.3915 22.6652C38.4896 23.1615 38.277 23.3601 37.9335 23.6082C37.59 23.8729 37.3446 23.906 36.9684 23.6744C34.9727 22.4336 32.9607 21.2259 30.9487 19.9851C30.638 19.7866 30.4089 19.77 30.0654 19.9685C28.0207 21.1266 25.9597 22.2516 23.9313 23.4428C23.4079 23.7571 23.1789 23.4428 22.8026 23.2442C22.41 23.0292 22.4264 22.7314 22.5082 22.3674C23.048 20.0678 23.5551 17.7517 24.1112 15.452C24.2094 15.0715 24.1276 14.8565 23.8495 14.5918C22.1156 12.987 20.4308 11.3326 18.6805 9.76092C18.2225 9.34732 18.4842 9.01644 18.5496 8.61939C18.6314 8.18925 18.9095 8.15616 19.2694 8.12307C21.6249 7.92454 23.9804 7.70947 26.3522 7.52749C26.7285 7.4944 26.8757 7.31242 27.0065 7.01463C27.9717 4.897 28.9695 2.79592 29.9019 0.678289C30.1636 0.165427 30.3926 -0.115821 30.8997 0.049619ZM39.7655 10.158C39.5529 10.1083 39.4711 10.0918 39.3893 10.0753C37.6063 9.86019 35.8233 9.62857 34.0404 9.43004C33.5333 9.38041 33.2388 9.18188 33.0752 8.68557C32.8135 7.95763 32.4864 7.24624 32.1919 6.51831C31.7503 5.47604 31.3086 4.45031 30.8342 3.29223C29.9836 5.14516 29.1494 6.88227 28.3806 8.65248C28.1843 9.09916 27.9062 9.24806 27.4646 9.28115C26.3686 9.36387 25.2726 9.46313 24.1767 9.5624C23.3751 9.62857 22.59 9.71129 21.6739 9.79401C22.9171 10.9686 23.9967 12.1102 25.1908 13.0697C26.1723 13.8638 26.4831 14.6248 26.0578 15.8822C25.5671 17.3711 25.3217 18.9594 24.9618 20.5145C25.06 20.5145 25.0927 20.531 25.1254 20.5145C26.3359 19.8362 27.5464 19.1579 28.7568 18.4796C29.3621 18.1487 29.9836 17.5697 30.5889 17.5697C31.1941 17.5862 31.7993 18.1818 32.3882 18.5458C33.6151 19.2737 34.8255 20.0182 36.1341 20.8288C35.7579 18.8601 35.4144 16.9906 35.0218 15.1543C34.9073 14.6083 35.0218 14.2609 35.4471 13.8969C36.8866 12.7223 38.2606 11.465 39.7655 10.158Z" fill="white"/>
<path d="M53.2116 15.3691C51.2977 15.1375 49.5638 14.939 47.9935 14.7405C47.3391 13.1192 46.7176 11.564 46.0305 9.85999C45.5562 10.9023 45.1472 11.7791 44.7383 12.6559C44.542 13.0695 44.3457 13.4666 44.1821 13.8967C43.9531 14.4592 43.5932 14.7405 42.9716 14.7405C42.4482 14.7405 41.9248 14.8232 41.3359 14.8563C41.2868 14.2276 41.2214 13.6486 41.1723 13.0199C41.3359 12.9868 41.4667 12.9041 41.5976 12.9206C42.3501 13.0199 42.7099 12.6394 42.988 11.9611C43.6587 10.3894 44.3948 8.85081 45.1309 7.31222C45.2944 6.98134 45.3926 6.60083 45.9324 6.60083C46.5049 6.60083 46.8157 6.83245 47.0284 7.34531C47.7317 9.08243 48.4842 10.803 49.1876 12.5236C49.3184 12.8544 49.4984 12.9868 49.8582 13.0199C51.723 13.235 53.5878 13.4666 55.4362 13.7147C55.7143 13.7478 56.0414 13.6816 56.1559 14.1118C56.2868 14.5916 56.3849 15.0383 55.9924 15.4353C55.7306 15.7 55.4526 15.9316 55.1745 16.1798C54.0294 17.189 52.9008 18.1982 51.7394 19.1742C51.4286 19.4389 51.3631 19.7037 51.4449 20.0842C51.8048 21.8378 52.0992 23.608 52.4918 25.3617C52.639 26.0069 52.6063 26.4701 51.9684 26.7679C51.8375 26.8341 51.7394 26.9334 51.6085 27.0161C49.8092 25.9242 48.0262 24.8654 46.2595 23.7569C45.916 23.5419 45.6707 23.5419 45.3272 23.7404C43.6587 24.6999 41.9738 25.6264 40.3053 26.5694C40.0273 26.7348 39.7655 26.8506 39.5038 26.5363C39.2421 26.222 38.7514 26.1393 38.9313 25.4775C39.4384 23.5915 39.8473 21.6724 40.2563 19.7533C40.3053 19.5217 40.1908 19.1908 40.0273 19.0088C39.602 18.5456 39.1276 18.132 38.6369 17.6522C39.0785 17.189 39.4711 16.7588 39.9291 16.2625C40.7143 17.007 41.5158 17.7184 42.2356 18.4794C42.3828 18.6448 42.3501 19.075 42.301 19.3562C42.0065 20.779 41.663 22.2018 41.3032 23.7569C41.5649 23.6246 41.7285 23.5419 41.892 23.4591C43.0044 22.8305 44.1167 22.1522 45.2617 21.5731C45.5725 21.4242 46.1123 21.4573 46.4231 21.6393C47.6827 22.3341 48.9095 23.1117 50.2672 23.9389C50.0054 22.5492 49.7764 21.3084 49.5474 20.0511C49.5474 20.018 49.5311 19.9684 49.5147 19.9353C49.2039 19.1081 49.482 18.529 50.169 17.9831C51.1832 17.2386 52.1156 16.3452 53.2116 15.3691Z" fill="white"/>
<path d="M20.7906 13.202C20.7088 13.8472 20.627 14.4263 20.5616 15.0715C19.6619 14.9722 18.795 14.9226 17.9444 14.7737C17.7644 14.7406 17.5845 14.4759 17.4864 14.2774C16.9466 13.0531 16.4395 11.8123 15.916 10.5881C15.8342 10.4061 15.7524 10.2076 15.6216 9.92632C15.1799 10.8859 14.6892 11.7296 14.3784 12.6395C13.8877 14.1119 13.1025 15.0053 11.4013 14.8564C10.4198 14.7737 9.42202 15.0053 8.32605 15.1046C8.48963 15.2866 8.57142 15.4024 8.66956 15.5016C9.58559 16.3619 10.4689 17.2553 11.4177 18.0659C11.9247 18.4961 12.0065 18.9428 11.8593 19.5384C11.5485 20.8453 11.2541 22.1523 10.9596 23.4593C10.9433 23.542 10.9433 23.6247 10.9106 23.8067C12.2519 23.0457 13.5278 22.3508 14.7873 21.6229C15.2454 21.3582 15.6379 21.3747 16.0796 21.656C17.3064 22.4336 18.5496 23.178 19.8746 23.9887C19.5965 22.4666 19.3511 21.0439 19.0567 19.6376C18.9422 19.0586 19.024 18.645 19.4984 18.281C20.0382 17.8674 20.5289 17.4042 21.1014 16.9079C21.5103 17.3876 21.9029 17.8343 22.41 18.4134C22.2792 18.4795 22.1647 18.5292 22.0665 18.5954C21.0196 19.1578 20.9542 19.985 21.2323 21.0604C21.6249 22.599 21.8375 24.1707 22.181 25.7258C22.3282 26.3876 21.8375 26.5034 21.5267 26.8177C21.1996 27.132 20.9869 26.9004 20.7252 26.735C19.0894 25.7423 17.4373 24.7497 15.8015 23.724C15.4907 23.542 15.2781 23.542 14.9673 23.7074C13.2824 24.667 11.5649 25.5769 9.89639 26.5695C9.32387 26.917 9.11122 26.4372 8.73499 26.2552C8.37512 26.0732 8.44056 25.792 8.52234 25.4611C8.98036 23.542 9.42202 21.6064 9.84732 19.6873C9.89639 19.5053 9.79824 19.1909 9.65102 19.0586C8.19519 17.6854 6.70664 16.3288 5.23445 14.9557C5.11994 14.8564 5.03816 14.6413 5.05451 14.509C5.21809 13.4833 5.26716 13.4336 6.28134 13.3509C8.06433 13.1855 9.86367 13.02 11.6467 12.8877C12.0229 12.8546 12.2192 12.7222 12.3828 12.3748C13.1843 10.5715 14.0185 8.78478 14.8037 6.96495C15.0327 6.46863 15.458 6.65061 15.8015 6.61752C15.9815 6.60098 16.3086 6.78296 16.3904 6.9484C17.1428 8.65243 17.8953 10.373 18.5823 12.1101C18.8277 12.7057 19.0894 13.1028 19.7928 13.0366C20.1036 13.0531 20.398 13.1524 20.7906 13.202Z" fill="white"/>
<path d="M0 53.8504C0 53.1721 0 52.593 0 51.9478C3.17339 51.9478 6.29771 51.9478 9.48746 51.9478C9.48746 45.1317 9.48746 38.3487 9.48746 31.5326C6.34678 31.5326 3.20611 31.5326 0.0163577 31.5326C0.0163577 30.8874 0.0163577 30.2752 0.0163577 29.63C0.196292 29.6135 0.376227 29.5969 0.556161 29.5969C3.43512 29.5969 6.31407 29.5969 9.17666 29.5969C10.6979 29.5969 11.4013 30.3083 11.4013 31.88C11.4013 38.4479 11.4013 44.9994 11.4013 51.5673C11.4013 53.1224 10.6979 53.8338 9.16031 53.8504C6.33043 53.8504 3.48419 53.8504 0.654308 53.8504C0.474373 53.8504 0.261723 53.8504 0 53.8504Z" fill="white"/>
<path d="M5.7252 47.5968C6.4613 47.6133 7.01746 48.1924 7.0011 48.9534C7.0011 49.6979 6.41222 50.2935 5.69248 50.2935C4.94003 50.2935 4.35115 49.6648 4.38387 48.9038C4.40023 48.1427 4.9891 47.5802 5.7252 47.5968Z" fill="white"/>
</g>
<defs>
<clipPath id="clip0_40_13750">
<rect width="60" height="54.5455" fill="white"/>
</clipPath>
</defs>
</svg>
