<svg width="60" height="47" viewBox="0 0 60 47" fill="none" xmlns="http://www.w3.org/2000/svg">
<path d="M3.28767 47.0001C2.53913 46.6184 2.26027 46.178 2.39236 45.6054C2.53913 44.9595 3.0088 44.6512 3.86007 44.6512C6.06164 44.6512 8.26321 44.6512 10.5528 44.6512C10.5528 42.9335 10.5528 41.2452 10.5528 39.4982C10.3914 39.4982 10.1712 39.4982 9.96575 39.4982C7.1771 39.4982 4.37377 39.4982 1.58512 39.4982C0.396277 39.4982 -0.014682 39.1019 -4.89876e-06 37.9127C0.0146722 36.5327 -0.0733904 35.1234 0.102735 33.7581C0.543048 30.2641 2.93542 27.6803 6.35518 26.8288C7.47064 26.5499 8.5861 26.2709 9.71624 26.036C10.1272 25.9479 10.1712 25.7718 10.2006 25.4048C10.2446 24.8029 10.0391 24.4505 9.52544 24.0688C7.83757 22.8356 6.76614 21.1474 6.64872 19.048C6.53131 16.6551 6.48728 14.2328 6.70743 11.8545C7.01565 8.52196 10.1712 5.85008 13.5176 5.70327C15.7045 5.61518 17.7153 5.9822 19.4178 7.43559C19.638 7.62644 19.8434 7.83197 20.093 8.05218C21.8689 3.55989 25.0832 0.888 29.956 0.888C34.8434 0.873319 38.0724 3.54521 39.863 8.06686C40.9051 6.99517 42.1086 6.21709 43.5616 5.9088C48.5078 4.86647 52.2358 7.36219 53.2192 11.3994C53.2779 11.6196 53.3366 11.8545 53.3366 12.0894C53.3219 14.541 53.454 17.0221 53.2485 19.4591C53.0871 21.485 51.8982 23.0852 50.1957 24.245C49.8581 24.4799 49.5939 25.4635 49.8141 25.8011C49.8875 25.9039 50.0783 25.9626 50.2104 25.992C51.1937 26.2416 52.1771 26.4618 53.1605 26.6967C56.9031 27.5922 59.1928 29.8677 59.8679 33.6847C59.8826 33.7434 59.9266 33.7874 59.956 33.8315C59.956 35.3876 59.956 36.9585 59.956 38.5146C59.6771 39.234 59.134 39.4689 58.3855 39.4542C55.5822 39.4395 52.7642 39.4395 49.9609 39.4395C49.7554 39.4395 49.5499 39.4395 49.4031 39.4395C49.4031 41.2012 49.4031 42.8895 49.4031 44.5924C51.6928 44.5924 53.8943 44.5924 56.0959 44.5924C56.9618 44.5924 57.4315 44.9007 57.5636 45.5467C57.6957 46.1192 57.4022 46.5596 56.6683 46.9413C38.909 47.0001 21.1057 47.0001 3.28767 47.0001ZM37.955 13.8511C35.4892 13.9538 33.6106 12.9702 32.3043 10.9002C29.2221 13.1464 25.773 14.0272 22.1184 13.8511C22.1184 15.4513 21.9716 16.9634 22.1477 18.4461C22.5294 21.7199 25.0832 24.4065 28.2975 25.0818C31.5851 25.7865 34.9462 24.3184 36.7515 21.5144C38.2926 19.1214 37.9403 16.4936 37.955 13.8511ZM26.9618 44.6365C23.4393 41.1131 19.9168 37.5897 16.365 34.037C14.6918 35.2996 13.4442 36.9732 13.1507 39.1312C12.9012 40.9223 12.9892 42.7427 12.9305 44.5484C12.9305 44.5778 12.9746 44.6071 13.0039 44.6218C17.6712 44.6365 22.3385 44.6365 26.9618 44.6365ZM43.7084 34.0811C40.1272 37.6485 36.6047 41.1718 33.1702 44.6218C37.7202 44.6218 42.4168 44.6218 47.0988 44.6218C47.0988 43.1684 47.1722 41.7591 47.0841 40.3644C46.908 37.7219 45.7192 35.6078 43.7084 34.0811ZM22.0597 11.4728C24.5548 11.6196 26.9031 11.2379 29.1194 10.1075C30.6311 9.3294 31.9374 8.30175 33.0528 7.00985C33.7133 6.23177 34.4031 6.11433 34.9609 6.59879C35.5479 7.11262 35.4892 7.75857 34.8141 8.53664C34.5793 8.80089 34.3591 9.05047 34.1389 9.30004C34.9315 10.9002 36.5313 11.7517 37.955 11.3847C38.1458 6.96581 34.4178 3.14883 29.9706 3.20755C25.4794 3.26627 21.8395 7.03921 22.0597 11.4728ZM19.7554 15.7742C18.7427 15.6127 17.862 15.554 17.0254 15.3338C16.1888 15.1136 15.3963 14.7025 14.5744 14.4089C14.3836 14.3355 14.134 14.3942 13.9286 14.453C12.8425 14.8053 11.7564 15.2017 10.6556 15.51C10.1125 15.6715 9.51076 15.6568 8.93835 15.7302C8.93835 16.6844 8.909 17.58 8.95303 18.4755C8.99706 19.4884 9.33463 20.4133 9.95107 21.2354C11.3894 23.1293 13.6937 23.599 16.0274 23.0118C17.9061 22.542 19.1389 21.2501 19.5352 19.371C19.7554 18.2112 19.682 16.978 19.7554 15.7742ZM40.274 15.8623C40.318 16.9193 40.274 18.0938 40.4648 19.2389C40.5822 19.9435 40.9491 20.6482 41.3748 21.2354C42.7691 23.1733 45.0734 23.5697 47.3924 23.0265C48.8307 22.6888 49.8728 21.7786 50.5626 20.4574C51.3405 18.9453 51.047 17.3304 51.1057 15.7449C50.4452 15.6568 49.8141 15.6127 49.2123 15.4953C48.5959 15.3778 47.9354 15.3044 47.4217 14.9962C46.2476 14.3355 45.2202 14.4383 44.002 14.9668C42.8865 15.4659 41.5949 15.5687 40.274 15.8623ZM49.5205 28.2381C49.0509 30.0439 48.6399 31.7762 48.1556 33.4938C47.8767 34.4628 47.6712 35.373 48.3904 36.2244C48.4931 36.3419 48.5372 36.5034 48.5812 36.6502C48.6839 37.0466 48.9188 37.164 49.3444 37.164C51.9423 37.1346 54.5401 37.1493 57.1233 37.1493C57.2847 37.1493 57.4609 37.1346 57.5783 37.12C57.5783 36.0042 57.6957 34.9179 57.5489 33.8755C57.2407 31.7468 56.0225 30.1907 54.0117 29.442C52.5734 28.9135 51.047 28.6345 49.5205 28.2381ZM2.24559 37.164C5.26908 37.164 8.11643 37.164 10.9638 37.164C11.0665 37.164 11.228 37.1053 11.2573 37.0466C11.5802 36.0336 12.4609 35.2555 12.0059 33.9489C11.3748 32.1138 11.0078 30.1907 10.4941 28.2381C9.02641 28.6198 7.5587 28.8988 6.16438 29.3832C4.31506 29.9998 3.05283 31.3358 2.61252 33.2443C2.33365 34.4921 2.36301 35.7987 2.24559 37.164ZM27.0205 27.1518C27.0793 28.2088 27.0059 29.2364 27.226 30.176C28.0333 33.5672 28.9286 36.9438 29.8092 40.3204C29.8532 40.4965 29.9266 40.6727 30.0294 40.9663C30.1027 40.7461 30.1321 40.658 30.1468 40.5699C31.0567 37.0172 32.0108 33.4791 32.862 29.9117C33.0675 29.0603 32.8914 28.106 32.8914 27.1664C30.954 27.7243 29.0313 27.695 27.0205 27.1518ZM19.6967 13.3372C19.6526 11.1792 18.8014 9.60833 16.9227 8.61005C15.1908 7.68516 12.3288 7.93473 10.8611 9.12387C9.51076 10.2102 8.89432 11.6049 8.92367 13.3372C10.4648 13.2785 11.8738 12.9702 13.1213 12.1775C13.9579 11.6343 14.6624 11.6636 15.499 12.1921C16.7466 12.9849 18.1556 13.2932 19.6967 13.3372ZM51.0323 13.3372C51.2524 11.737 50.3131 9.76982 48.816 8.90366C46.7319 7.69984 44.5744 7.68516 42.5489 8.9477C40.9785 9.91663 40.318 11.4581 40.3474 13.3519C41.8151 13.3079 43.18 13.0583 44.3689 12.2949C45.3376 11.6636 46.1448 11.693 47.0988 12.3096C48.273 13.0436 49.638 13.2932 51.0323 13.3372ZM18.8454 32.7451C21.8542 35.7547 24.819 38.7348 27.725 41.6269C26.8591 38.2651 25.9638 34.7857 25.0538 31.2477C22.9403 31.7615 20.8562 32.2606 18.8454 32.7451ZM32.3043 41.6563C35.2691 38.7055 38.2192 35.7547 41.2133 32.7598C39.2025 32.2753 37.1037 31.7762 34.9755 31.2477C34.0656 34.771 33.1703 38.2357 32.3043 41.6563ZM24.7016 27.695C24.863 26.7847 24.8337 25.9039 23.7329 25.4341C23.498 25.3314 23.2926 25.1112 23.1164 24.9056C22.3532 24.0395 21.6047 23.1586 20.9295 22.3659C20.1957 23.0118 19.4031 23.7165 18.6106 24.4358C18.5078 24.5239 18.4344 24.6854 18.4344 24.8175C18.4051 25.1699 18.4198 25.5222 18.4198 25.9039C19.4912 26.1682 20.5333 26.3884 21.5753 26.682C22.6027 26.9756 23.6301 27.3426 24.7016 27.695ZM35.2838 27.8564C37.2945 26.6967 39.4961 26.5499 41.5949 25.8892C41.5949 25.625 41.6243 25.3607 41.5802 25.1112C41.5509 24.8763 41.5215 24.5826 41.3748 24.4358C40.6115 23.7018 39.7896 23.0118 38.9824 22.2925C38.1605 23.7605 36.9569 25.0377 35.4452 26.0214C35.3571 26.0801 35.2691 26.2416 35.2691 26.359C35.2691 26.8288 35.2838 27.2839 35.2838 27.8564ZM43.9873 25.5222C43.9873 25.992 43.8992 26.4765 44.002 26.9169C44.4129 28.6492 44.8679 30.3522 45.3229 32.0698C45.3963 32.3487 45.6311 32.5836 45.8659 32.9506C46.4237 30.7926 46.9521 28.8254 47.4217 26.8582C47.5245 26.4177 47.4364 25.9333 47.4364 25.5222C46.2769 25.5222 45.1468 25.5222 43.9873 25.5222ZM12.5049 25.5075C12.5636 28.0179 13.6057 30.3228 14.0607 32.8038C14.8239 32.2753 16.2475 26.6233 15.998 25.5075C14.8532 25.5075 13.7378 25.5075 12.5049 25.5075ZM37.5881 29.3098C37.5881 29.3539 37.6027 29.4126 37.6027 29.4566C39.2319 29.8677 40.8464 30.2788 42.5342 30.7045C42.3141 29.853 42.1086 29.0603 41.8885 28.2528C40.4207 28.6198 39.0117 28.9575 37.5881 29.3098ZM22.3826 29.4566C22.3973 29.4126 22.4119 29.3539 22.4266 29.3098C21.0029 28.9575 19.5793 28.6198 18.0969 28.2528C17.8914 29.0896 17.6859 29.8824 17.4804 30.7045C19.1683 30.2788 20.7681 29.8677 22.3826 29.4566Z" fill="white"/>
</svg>
