<svg width="60" height="57" viewBox="0 0 60 57" fill="none" xmlns="http://www.w3.org/2000/svg">
<path d="M26.0441 35.3571C24.0258 36.8838 22.056 38.378 20.07 39.8722C19.9731 39.9372 19.8924 40.0184 19.7632 40.1158C21.4263 43.0392 21.8138 46.0926 20.7158 49.2921C19.8439 51.8257 18.2293 53.7584 15.9042 55.0739C11.254 57.7375 5.31216 56.4869 2.11518 52.1668C-1.09796 47.8304 -0.613566 41.8211 3.21313 38.0369C7.03982 34.2527 14.0474 33.6193 18.6168 38.5079C20.6835 36.9488 22.7664 35.3734 24.8654 33.798C24.042 32.0277 23.9774 30.2574 24.8493 28.5034C25.7051 26.7818 27.1259 25.7748 29.0312 25.3526C29.0312 24.037 29.0312 22.7053 29.0312 21.3897C22.4435 20.7726 18.6491 14.4385 19.5048 8.9977C20.296 3.96294 24.7686 0.016329 29.9193 -0.0161534C35.1991 -0.0486357 39.6878 3.80052 40.5597 8.93274C41.4478 14.1462 37.8794 20.7401 31.0334 21.3897C31.0334 22.7053 31.0334 24.0046 31.0334 25.3201C35.07 26.2296 36.8622 30.2574 35.2153 33.798C36.2486 34.5776 37.282 35.3571 38.3315 36.1367C39.3811 36.9325 40.4144 37.7121 41.4639 38.4917C46.0495 33.5706 53.1055 34.1715 57.0291 38.2318C60.8396 42.1622 61.0334 48.3176 57.4327 52.6702C54.0581 56.7468 47.8741 57.5588 43.4338 54.538C38.9612 51.4846 37.2982 45.2967 40.3337 40.0996C39.3003 39.32 38.2669 38.5404 37.2174 37.7608C36.1679 36.965 35.1184 36.1854 34.0366 35.3571C32.8902 36.3641 31.5823 36.9488 30.0484 36.9488C28.5307 36.9488 27.2228 36.4128 26.0441 35.3571ZM35.845 17.1183C38.0409 15.3642 39.6717 11.3852 38.1378 7.48727C36.7007 3.84925 33.0194 1.57548 29.1604 1.96527C25.2852 2.3713 22.056 5.4084 21.4586 9.17636C20.9903 12.2135 22.3789 16.2088 24.2196 17.0371C24.1389 14.6009 25.1238 12.7332 27.1582 11.4339C26.1894 9.90721 26.0764 9.51742 26.1572 7.6172C26.2379 5.74947 27.6103 4.2228 29.4833 3.91421C31.211 3.63811 33.0678 4.67755 33.6168 6.38287C34.1496 8.05571 34.1496 9.7448 32.9871 11.2227C32.9386 11.2715 32.9225 11.3527 32.8902 11.4339C34.9731 12.7657 35.9257 14.6334 35.845 17.1183ZM7.84714 46.4499C6.87836 45.0044 6.74919 44.5172 6.82992 42.6332C6.91065 40.7005 8.42842 39.0926 10.3337 38.9302C12.2551 38.7515 14.0635 40.0346 14.4349 41.9511C14.7417 43.5427 14.6932 45.1018 13.4984 46.4499C14.4995 47.067 15.3714 47.7979 15.775 48.8536C16.1787 49.8768 16.3886 50.9812 16.6631 52.0044C19.0043 50.2178 20.0215 46.1088 18.8751 42.7956C17.6157 39.2063 14.2411 36.9001 10.3337 36.9813C6.70075 37.0625 3.39074 39.6611 2.34122 43.2179C1.21098 47.0021 2.93864 50.6726 4.87621 52.118C4.81162 49.6494 5.76426 47.7654 7.84714 46.4499ZM43.563 52.1505C43.4822 49.6331 44.4672 47.7167 46.5662 46.4011C45.5005 45.2805 45.4521 43.965 45.5167 42.6007C45.5974 40.668 47.1313 39.0764 49.0366 38.914C50.9742 38.7515 52.7664 40.0346 53.1216 41.9348C53.4284 43.5265 53.38 45.0856 52.1851 46.4336C53.2024 47.0508 54.0581 47.7979 54.4779 48.8373C54.8816 49.8605 55.0915 50.9649 55.366 51.9881C58.4499 49.3083 59.3218 43.6726 55.7696 39.7585C52.395 36.0555 46.5985 35.9905 43.1109 39.6123C39.7201 43.1529 39.8977 48.9835 43.563 52.1505ZM30.0646 27.2365C27.9333 27.2203 26.1733 28.9581 26.1733 31.1182C26.1733 33.2458 27.8848 34.9998 29.9838 35.0161C32.1313 35.0323 33.8913 33.3107 33.9074 31.1669C33.9236 29.0231 32.1959 27.2528 30.0646 27.2365ZM33.9074 17.2482C33.9074 16.9884 33.9074 16.7285 33.9074 16.4524C33.859 14.4547 32.3251 12.8144 30.3714 12.652C28.4177 12.4896 26.6415 13.7889 26.2863 15.7378C26.141 16.4849 26.2217 17.2645 26.1733 18.0278C26.141 18.4176 26.3025 18.5962 26.6415 18.7424C28.5791 19.5545 30.5328 19.6519 32.535 19.0672C33.9074 18.6774 33.9074 18.6774 33.9074 17.2482ZM6.82992 52.0693C6.82992 52.4104 6.86221 52.6215 6.82992 52.8164C6.73304 53.4011 7.00753 53.6609 7.54036 53.8558C9.59095 54.6192 11.6254 54.6679 13.676 53.9208C14.5802 53.596 14.5802 53.596 14.5802 52.6053C14.5802 52.1992 14.5963 51.7932 14.5802 51.3872C14.4833 49.8443 13.7567 48.6912 12.3681 48.0253C10.9957 47.3756 9.65554 47.5218 8.42841 48.4151C7.1367 49.357 6.73304 50.6888 6.82992 52.0693ZM53.2347 52.248C53.2347 51.9719 53.2508 51.6795 53.2347 51.4034C53.1701 49.4707 51.6523 47.8629 49.747 47.6842C47.8095 47.4893 45.9849 48.7886 45.6297 50.7213C45.4844 51.4684 45.5651 52.248 45.5005 53.0113C45.4682 53.4173 45.6136 53.6122 45.9849 53.7746C47.9225 54.5705 49.8762 54.6841 51.8784 54.0832C53.2508 53.6772 53.2508 53.6609 53.2347 52.248ZM28.0786 8.1694C28.0947 8.1694 28.0947 8.1694 28.1109 8.1694C28.1109 8.3643 28.1109 8.57543 28.1109 8.77033C28.1593 9.85848 29.0151 10.6868 30.0646 10.6868C31.0979 10.6705 31.9214 9.85849 31.9699 8.80281C31.986 8.41302 31.986 8.03947 31.9699 7.64968C31.9053 6.7077 31.1625 5.92812 30.2422 5.83067C29.3218 5.73322 28.4822 6.30167 28.2239 7.21117C28.1109 7.51975 28.1109 7.86082 28.0786 8.1694ZM12.6749 43.3153C12.6588 43.3153 12.6426 43.3153 12.6426 43.3153C12.6426 43.1367 12.6426 42.958 12.6426 42.7631C12.5942 41.675 11.7384 40.8467 10.6889 40.8467C9.65554 40.8629 8.83207 41.675 8.78364 42.7306C8.76749 43.1204 8.76749 43.494 8.78364 43.8838C8.84822 44.8257 9.59095 45.6053 10.5113 45.7028C11.4155 45.8002 12.2874 45.2318 12.5296 44.3223C12.6265 43.9974 12.6265 43.6564 12.6749 43.3153ZM51.3132 43.2504C51.3132 43.1042 51.3132 42.9743 51.3132 42.8281C51.2809 41.6912 50.4413 40.8467 49.3595 40.8467C48.2777 40.8467 47.4704 41.7074 47.4381 42.8443C47.4381 43.1854 47.422 43.5265 47.4381 43.8838C47.5188 45.1993 48.8428 46.0438 50.0538 45.5728C50.9419 45.248 51.3132 44.5334 51.3132 43.2504Z" fill="white"/>
</svg>
