<svg width="55" height="65" viewBox="0 0 55 65" fill="none" xmlns="http://www.w3.org/2000/svg">
<path d="M52.6573 19.1412C52.218 18.7288 51.8249 18.3641 51.4718 18.0366C48.6031 15.3754 48.6031 15.3754 47.7328 11.5603C47.6255 11.0907 47.5063 10.5678 47.3689 9.98125C46.7007 7.12849 44.2861 5.10232 41.3606 4.93969C40.7591 4.9063 40.2234 4.87951 39.7424 4.85565C35.8342 4.66103 35.8342 4.66103 32.7151 2.29792C32.3313 2.00707 31.9038 1.68322 31.4217 1.32229C29.076 -0.433601 25.924 -0.433601 23.5784 1.32229C23.0963 1.68322 22.6688 2.00707 22.285 2.29792C19.166 4.66103 19.166 4.66103 15.2578 4.85565C14.7768 4.87951 14.241 4.9063 13.6395 4.93969C10.714 5.10244 8.29949 7.12849 7.63108 9.98125C7.49372 10.5678 7.37451 11.0907 7.26736 11.5603C6.3971 15.3752 6.3971 15.3752 3.52834 18.0364C3.17528 18.3641 2.78211 18.7288 2.34285 19.141C0.206483 21.1461 -0.340939 24.2503 0.98077 26.8651C1.25258 27.4026 1.49722 27.88 1.7171 28.3085C3.50257 31.7904 3.50257 31.7904 3.0157 35.6733C2.95578 36.1511 2.88913 36.6832 2.81753 37.2812C2.4698 40.1905 4.0458 42.9203 6.73924 44.0737C7.29288 44.3109 7.78711 44.5192 8.23081 44.7061C10.0889 45.4891 10.9891 45.8694 11.7161 46.5031L5.90147 58.9923C5.74189 59.3353 5.78607 59.7386 6.01624 60.0389C6.24641 60.339 6.62422 60.4866 6.99708 60.4215L12.7913 59.409L15.7464 64.4947C15.9289 64.8085 16.2638 64.9999 16.6244 64.9999C16.6397 64.9999 16.6552 64.9996 16.6705 64.9989C17.0486 64.9817 17.3857 64.7559 17.5454 64.413L22.6645 53.4174C23.0607 53.2965 23.4252 53.1842 23.7611 53.0804C27.5 51.9267 27.5003 51.9267 31.2392 53.0804C31.6226 53.1988 32.0448 53.3289 32.5077 53.4697L37.6024 64.413C37.7621 64.7559 38.0992 64.9817 38.4773 64.9989C38.4926 64.9996 38.508 64.9999 38.5234 64.9999C38.8839 64.9999 39.2189 64.8082 39.4014 64.4947L42.3565 59.409L48.1507 60.4215C48.5236 60.4864 48.9015 60.3391 49.1316 60.0389C49.3617 59.7386 49.4059 59.3353 49.2463 58.9923L43.39 46.4135C44.0996 45.8319 45.0004 45.4517 46.7693 44.7062C47.2132 44.5191 47.7074 44.3109 48.261 44.0737C50.9545 42.9203 52.5305 40.1906 52.1829 37.2812C52.1114 36.6832 52.0446 36.1511 51.9846 35.6731C51.4976 31.7904 51.4976 31.7904 53.2832 28.3085C53.5028 27.8799 53.7476 27.4026 54.0194 26.8651C55.3411 24.2504 54.7937 21.1463 52.6573 19.1412ZM16.525 61.7918L14.1918 57.7767C13.978 57.409 13.5575 57.2138 13.1388 57.2865L8.56419 58.0858L13.14 48.2575C13.3793 48.6151 13.6459 49.0273 13.9593 49.5129C14.2207 49.9177 14.5117 50.3683 14.8414 50.8726C16.068 52.7482 18.0894 53.8183 20.2274 53.8391L16.525 61.7918ZM42.0087 57.2864C41.5895 57.2136 41.1694 57.4088 40.9558 57.7766L38.6225 61.7917L34.9193 53.8371C37.0027 53.7698 38.9599 52.7053 40.1588 50.8725C40.4885 50.3682 40.7794 49.9177 41.0406 49.5131C41.3927 48.9675 41.6859 48.5142 41.9473 48.1277L46.5834 58.0856L42.0087 57.2864ZM52.2065 25.9489C51.9367 26.4825 51.6939 26.9563 51.4756 27.3817C49.4621 31.3082 49.4199 31.5477 49.9691 35.926C50.0286 36.4004 50.0947 36.9287 50.1658 37.5223C50.4093 39.5601 49.3478 41.3987 47.4612 42.2066C46.9115 42.442 46.421 42.6487 45.9803 42.8343C41.9141 44.5479 41.7278 44.7042 39.3342 48.4112C39.0747 48.8129 38.786 49.2603 38.4587 49.7606C37.3355 51.4779 35.3404 52.2041 33.376 51.6104C32.8036 51.4375 32.2948 51.2805 31.838 51.1396C29.7299 50.4891 28.6149 50.1637 27.5 50.1637C26.3851 50.1637 25.2702 50.4891 23.162 51.1396C22.7051 51.2805 22.1964 51.4375 21.624 51.6104C19.6598 52.2042 17.6646 51.478 16.5414 49.7606C16.214 49.26 15.9252 48.8127 15.6658 48.411C13.2722 44.7043 13.0859 44.5479 9.01957 42.8343C8.57892 42.6487 8.08837 42.4419 7.53879 42.2066C5.65239 41.3987 4.59068 39.5599 4.83431 37.5223C4.90527 36.9287 4.97154 36.4004 5.03108 35.9262C5.58016 31.5477 5.53788 31.3082 3.5244 27.3817C3.30617 26.9563 3.06331 26.4825 2.79353 25.9489C1.86779 24.1174 2.23646 22.0266 3.73273 20.6222C4.16882 20.2129 4.5592 19.8508 4.90972 19.5257C8.14448 16.5248 8.2661 16.3141 9.24758 12.0121C9.35396 11.5459 9.47241 11.0268 9.60876 10.4446C10.077 8.44652 11.7034 7.08177 13.7524 6.96789C14.3494 6.93463 14.8814 6.9081 15.3588 6.88436C19.7659 6.66486 19.9944 6.5817 23.5117 3.91683C23.8928 3.62814 24.317 3.30656 24.7957 2.9483C26.4386 1.71851 28.5616 1.71851 30.2045 2.9483C30.6832 3.30656 31.1074 3.62801 31.4885 3.91683C35.0057 6.58157 35.2342 6.66486 39.6413 6.88436C40.1189 6.9081 40.6507 6.93463 41.2478 6.96789C43.2968 7.08177 44.9232 8.44652 45.3913 10.4446C45.5276 11.0268 45.6461 11.5459 45.7524 12.0121C46.7339 16.3141 46.8555 16.5248 50.0904 19.5257C50.441 19.851 50.8313 20.213 51.2674 20.6222C52.7636 22.0266 53.1322 24.1175 52.2065 25.9489ZM27.5 10.037C18.1896 10.037 10.6152 17.6115 10.6152 26.9217C10.6152 36.232 18.1896 43.8065 27.5 43.8065C36.8104 43.8065 44.3848 36.232 44.3848 26.9217C44.3848 17.6115 36.8104 10.037 27.5 10.037ZM27.5 41.7754C19.3098 41.7754 12.6465 35.1121 12.6465 26.9219C12.6465 18.7316 19.3098 12.0684 27.5 12.0684C35.6903 12.0684 42.3535 18.7316 42.3535 26.9219C42.3535 35.1121 35.6903 41.7754 27.5 41.7754ZM32.5232 28.9178C32.5228 28.9178 32.5221 28.9178 32.5216 28.9178C31.4489 28.9182 30.4404 29.3363 29.6822 30.0951C28.9238 30.8539 28.5065 31.8626 28.5069 32.9354C28.5073 34.0083 28.9253 35.0168 29.6841 35.7751C30.4427 36.533 31.4508 36.9504 32.5232 36.9504C32.5235 36.9504 32.5241 36.9504 32.5244 36.9504C34.739 36.9495 36.5402 35.1473 36.5393 32.9328C36.5389 31.86 36.1209 30.8515 35.3621 30.0932C34.6037 29.3351 33.5957 28.9178 32.5232 28.9178ZM32.5239 34.9192C32.5237 34.9192 32.5234 34.9192 32.5233 34.9192C31.9933 34.9192 31.4948 34.7129 31.12 34.3382C30.7449 33.9636 30.5383 33.465 30.5381 32.9348C30.5379 32.4045 30.7442 31.9059 31.1189 31.5309C31.4937 31.1559 31.9921 30.9492 32.5224 30.9491C32.5227 30.9491 32.5229 30.9491 32.5232 30.9491C33.0532 30.9491 33.5515 31.1554 33.9264 31.53C34.3014 31.9048 34.5081 32.4031 34.5082 32.9335C34.5086 34.0279 33.6184 34.9188 32.5239 34.9192ZM22.4783 24.9259C24.6927 24.9252 26.4938 23.1228 26.4931 20.9082C26.4923 18.694 24.6908 16.8933 22.4767 16.8933C22.4763 16.8933 22.4758 16.8933 22.4753 16.8933C20.2609 16.8941 18.4598 18.6965 18.4604 20.911C18.4613 23.1252 20.2627 24.926 22.4766 24.9259C22.4772 24.9259 22.4777 24.9259 22.4783 24.9259ZM20.4918 20.9104C20.4914 19.8158 21.3818 18.925 22.4762 18.9246C22.4765 18.9246 22.4766 18.9246 22.4769 18.9246C23.5711 18.9246 24.4616 19.8147 24.462 20.9089C24.4624 22.0035 23.5722 22.8943 22.4776 22.8947C22.4774 22.8947 22.4771 22.8947 22.4769 22.8947C21.3825 22.8947 20.4922 22.0046 20.4918 20.9104ZM34.0392 19.6282L22.7934 35.2904C22.5949 35.5666 22.2835 35.7138 21.9675 35.7138C21.7625 35.7138 21.5554 35.6518 21.376 35.5229C20.9204 35.1958 20.8163 34.5613 21.1435 34.1056L32.3894 18.4434C32.7163 17.9878 33.3508 17.8836 33.8067 18.2107C34.2623 18.538 34.3664 19.1727 34.0392 19.6282Z" fill="white"/>
</svg>
