<svg width="74" height="41" viewBox="0 0 74 41" fill="none" xmlns="http://www.w3.org/2000/svg">
<path d="M64.56 6.55996C64.4855 6.4606 64.3889 6.37996 64.2778 6.32441C64.1667 6.26887 64.0442 6.23996 63.92 6.23996H51.264V1.65596C51.264 1.44378 51.1797 1.2403 51.0297 1.09027C50.8797 0.940243 50.6762 0.855957 50.464 0.855957H12.768C12.5558 0.855957 12.3523 0.940243 12.2023 1.09027C12.0523 1.2403 11.968 1.44378 11.968 1.65596V6.23996H7.4C7.18783 6.23996 6.98434 6.32424 6.83432 6.47427C6.68429 6.6243 6.6 6.82778 6.6 7.03996C6.6 7.25213 6.68429 7.45561 6.83432 7.60564C6.98434 7.75567 7.18783 7.83996 7.4 7.83996H11.984V11.6H4.696C4.48383 11.6 4.28034 11.6842 4.13032 11.8343C3.98029 11.9843 3.896 12.1878 3.896 12.4C3.896 12.6121 3.98029 12.8156 4.13032 12.9656C4.28034 13.1157 4.48383 13.2 4.696 13.2H11.968V16.984H2C1.78783 16.984 1.58434 17.0682 1.43432 17.2183C1.28429 17.3683 1.2 17.5718 1.2 17.784C1.2 17.9961 1.28429 18.1996 1.43432 18.3496C1.58434 18.4997 1.78783 18.584 2 18.584H11.968V34C11.968 34.2121 12.0523 34.4156 12.2023 34.5656C12.3523 34.7157 12.5558 34.8 12.768 34.8H17.408C17.5953 36.2931 18.3213 37.6666 19.4496 38.6623C20.578 39.658 22.0311 40.2075 23.536 40.2075C25.0409 40.2075 26.494 39.658 27.6224 38.6623C28.7507 37.6666 29.4767 36.2931 29.664 34.8H33.568C33.7751 36.2747 34.508 37.6249 35.6319 38.602C36.7557 39.5791 38.1948 40.1172 39.684 40.1172C41.1732 40.1172 42.6122 39.5791 43.7361 38.602C44.86 37.6249 45.5929 36.2747 45.8 34.8H55.104C55.2501 36.3293 55.961 37.7492 57.0978 38.7826C58.2346 39.816 59.7157 40.3885 61.252 40.3885C62.7883 40.3885 64.2694 39.816 65.4062 38.7826C66.543 37.7492 67.2539 36.3293 67.4 34.8H72.04C72.2522 34.8 72.4557 34.7157 72.6057 34.5656C72.7557 34.4156 72.84 34.2121 72.84 34V17.808C72.84 17.6349 72.7839 17.4664 72.68 17.328L64.56 6.55996ZM23.536 38.56C22.6283 38.5599 21.7411 38.2905 20.9868 37.7857C20.2324 37.281 19.6449 36.5636 19.2987 35.7246C18.9525 34.8856 18.8631 33.9627 19.0419 33.0728C19.2207 32.1829 19.6597 31.3662 20.3032 30.7261C20.9467 30.086 21.7657 29.6513 22.6565 29.4771C23.5473 29.303 24.4697 29.3972 25.3069 29.7478C26.1441 30.0985 26.8584 30.6897 27.3592 31.4467C27.86 32.2037 28.1248 33.0923 28.12 34C28.1074 35.2081 27.6191 36.3626 26.761 37.2132C25.903 38.0638 24.7442 38.5419 23.536 38.544V38.56ZM39.688 38.56C38.7803 38.5599 37.8931 38.2905 37.1388 37.7857C36.3844 37.281 35.7969 36.5636 35.4507 35.7246C35.1045 34.8856 35.0151 33.9627 35.1939 33.0728C35.3727 32.1829 35.8117 31.3662 36.4552 30.7261C37.0987 30.086 37.9177 29.6513 38.8085 29.4771C39.6993 29.303 40.6217 29.3972 41.4589 29.7478C42.2961 30.0985 43.0103 30.6897 43.5112 31.4467C44.0119 32.2037 44.2767 33.0923 44.272 34C44.2594 35.2081 43.7711 36.3626 42.913 37.2132C42.0549 38.0638 40.8962 38.5419 39.688 38.544V38.56ZM49.664 7.03996V33.2H45.8C45.7886 33.1138 45.7726 33.0284 45.752 32.944C45.752 32.864 45.752 32.784 45.752 32.704C45.7294 32.5816 45.6973 32.4613 45.656 32.344C45.642 32.2734 45.6233 32.204 45.6 32.136C45.552 31.992 45.504 31.848 45.448 31.704L45.4 31.584C45.328 31.408 45.24 31.232 45.152 31.064L45.08 30.944C45.008 30.816 44.928 30.696 44.848 30.576C44.768 30.456 44.768 30.464 44.728 30.408L44.512 30.112L44.36 29.944C44.288 29.856 44.208 29.768 44.128 29.688L43.96 29.52L43.712 29.296L43.52 29.144C43.437 29.071 43.3487 29.0041 43.256 28.944L43.056 28.808L42.776 28.64C42.7058 28.5922 42.6307 28.552 42.552 28.52C42.4574 28.464 42.3584 28.4158 42.256 28.376L42.032 28.272L41.712 28.152L41.48 28.08L41.136 27.992L40.904 27.936L40.512 27.872H40.312C40.1095 27.8598 39.9065 27.8598 39.704 27.872C39.5015 27.86 39.2985 27.86 39.096 27.872H38.904L38.504 27.936L38.28 27.992L37.936 28.08L37.704 28.16L37.384 28.272L37.16 28.376C37.0576 28.4158 36.9586 28.464 36.864 28.52C36.7869 28.5552 36.712 28.5952 36.64 28.64L36.36 28.808L36.152 28.944C36.0633 29.0062 35.9778 29.0729 35.896 29.144L35.704 29.296L35.456 29.52L35.28 29.688L35.056 29.936C35.008 30 34.952 30.056 34.904 30.112C34.856 30.168 34.76 30.304 34.688 30.4C34.616 30.496 34.6 30.52 34.56 30.576C34.52 30.632 34.416 30.816 34.344 30.936L34.264 31.064C34.176 31.24 34.088 31.408 34.016 31.584C34.016 31.584 34.016 31.672 33.968 31.704C33.92 31.736 33.856 31.992 33.816 32.136C33.776 32.28 33.816 32.272 33.752 32.344C33.688 32.416 33.688 32.576 33.664 32.704C33.64 32.832 33.664 32.864 33.624 32.944C33.6034 33.0284 33.5874 33.1138 33.576 33.2H29.672L29.624 32.944C29.624 32.864 29.624 32.784 29.584 32.704C29.544 32.624 29.52 32.456 29.488 32.344C29.474 32.2734 29.4553 32.204 29.432 32.136C29.384 31.992 29.336 31.848 29.28 31.704C29.224 31.56 29.28 31.624 29.232 31.584C29.152 31.408 29.072 31.24 28.984 31.064L28.904 30.936C28.832 30.816 28.76 30.696 28.68 30.576L28.56 30.4L28.344 30.112C28.296 30.056 28.24 30 28.192 29.936L27.96 29.688L27.784 29.52L27.544 29.296L27.352 29.144L27.088 28.944L26.88 28.808C26.792 28.744 26.696 28.696 26.608 28.64L26.384 28.52C26.2894 28.464 26.1904 28.4158 26.088 28.376L25.856 28.272L25.544 28.16L25.312 28.08L25 27.952L24.768 27.896L24.376 27.832H24.176C23.9735 27.8198 23.7705 27.8198 23.568 27.832C23.3655 27.82 23.1625 27.82 22.96 27.832H22.76L22.368 27.896L22.144 27.952L21.8 28.04L21.568 28.12L21.248 28.232L21.016 28.336L20.72 28.48L20.504 28.6L20.224 28.768L20.016 28.904C19.9273 28.9662 19.8418 29.0329 19.76 29.104L19.56 29.256L19.32 29.48L19.144 29.648C19.064 29.728 18.992 29.816 18.92 29.896L18.768 30.072C18.688 30.168 18.624 30.264 18.552 30.36C18.48 30.456 18.464 30.48 18.424 30.536C18.384 30.592 18.272 30.776 18.208 30.896L18.128 31.024C18.0356 31.1925 17.9528 31.3661 17.88 31.544C17.8619 31.5831 17.8459 31.6232 17.832 31.664C17.776 31.808 17.72 31.952 17.672 32.096C17.624 32.24 17.672 32.232 17.616 32.304C17.56 32.376 17.552 32.536 17.528 32.664L17.48 32.904C17.4755 32.9892 17.4755 33.0747 17.48 33.16H13.64V18.608H26.232C26.4442 18.608 26.6477 18.5237 26.7977 18.3736C26.9477 18.2236 27.032 18.0201 27.032 17.808C27.032 17.5958 26.9477 17.3923 26.7977 17.2423C26.6477 17.0922 26.4442 17.008 26.232 17.008H13.568V13.2H39.688C39.9002 13.2 40.1037 13.1157 40.2537 12.9656C40.4037 12.8156 40.488 12.6121 40.488 12.4C40.488 12.1878 40.4037 11.9843 40.2537 11.8343C40.1037 11.6842 39.9002 11.6 39.688 11.6H13.568V7.83996H45.072C45.2842 7.83996 45.4877 7.75567 45.6377 7.60564C45.7877 7.45561 45.872 7.25213 45.872 7.03996C45.872 6.82778 45.7877 6.6243 45.6377 6.47427C45.4877 6.32424 45.2842 6.23996 45.072 6.23996H13.568V2.45596H49.664V7.03996ZM61.232 38.544C60.323 38.5471 59.4336 38.2799 58.6768 37.7763C57.92 37.2728 57.33 36.5556 56.9818 35.7159C56.6336 34.8763 56.5429 33.952 56.7212 33.0607C56.8996 32.1693 57.3389 31.3512 57.9833 30.7101C58.6278 30.069 59.4483 29.634 60.3406 29.4604C61.2328 29.2868 62.1566 29.3823 62.9944 29.7349C63.8322 30.0876 64.5463 30.6813 65.0459 31.4408C65.5454 32.2002 65.8079 33.091 65.8 34C65.7874 35.2053 65.3013 36.3575 64.4467 37.2076C63.5921 38.0577 62.4374 38.5377 61.232 38.544ZM71.2 33.2H67.4L67.352 32.944C67.352 32.864 67.352 32.784 67.304 32.704C67.256 32.624 67.248 32.456 67.216 32.344C67.184 32.232 67.216 32.2 67.16 32.136C67.104 32.072 67.056 31.848 67 31.704C66.944 31.56 67 31.624 67 31.584C66.92 31.408 66.84 31.24 66.744 31.064C66.7202 31.0195 66.6935 30.9768 66.664 30.936C66.6 30.8133 66.528 30.6933 66.448 30.576L66.32 30.4L66.112 30.112L65.952 29.936C65.88 29.856 65.808 29.768 65.728 29.688L65.552 29.52L65.312 29.296L65.112 29.144C65.0302 29.0729 64.9447 29.0062 64.856 28.944L64.648 28.808C64.5575 28.7473 64.4641 28.6912 64.368 28.64L64.152 28.52C64.0566 28.4655 63.9577 28.4174 63.856 28.376L63.624 28.272L63.304 28.16L63.072 28.08L62.728 27.992L62.504 27.936L62.112 27.872H61.912C61.5078 27.8293 61.1002 27.8293 60.696 27.872H60.496L60.104 27.936L59.88 27.992L59.528 28.08L59.304 28.152L58.984 28.272L58.752 28.376C58.6503 28.4174 58.5514 28.4655 58.456 28.52C58.3807 28.5538 58.3085 28.5939 58.24 28.64C58.1439 28.6912 58.0504 28.7473 57.96 28.808L57.752 28.944L57.488 29.144L57.296 29.296L57.048 29.52L56.88 29.688C56.8 29.768 56.728 29.856 56.648 29.944L56.496 30.112L56.28 30.408L56.16 30.576C56.08 30.696 56.008 30.816 55.936 30.944C55.9091 30.9821 55.885 31.0222 55.864 31.064C55.768 31.232 55.688 31.408 55.608 31.584V31.704C55.552 31.848 55.496 31.992 55.448 32.136C55.4247 32.204 55.406 32.2734 55.392 32.344C55.36 32.456 55.328 32.576 55.296 32.704C55.296 32.784 55.296 32.864 55.296 32.944L55.248 33.2H51.264V7.83996H63.52L71.2 18.072V33.2Z" fill="white" stroke="white" stroke-width="0.5" stroke-linejoin="round"/>
</svg>
