<svg width="36" height="36" viewBox="0 0 36 36" fill="none" xmlns="http://www.w3.org/2000/svg">
<path d="M18 17.5715C19.6569 17.5715 21 16.2284 21 14.5715C21 12.9147 19.6569 11.5715 18 11.5715C16.3431 11.5715 15 12.9147 15 14.5715C15 16.2284 16.3431 17.5715 18 17.5715Z" stroke="#15853D" stroke-width="2" stroke-linecap="round" stroke-linejoin="round"/>
<path d="M18 31.5C18 31.5 28.5 24.2308 28.5 14.8846C28.5 12.1304 27.3938 9.48908 25.4246 7.54158C23.4555 5.59409 20.7848 4.5 18 4.5C15.2152 4.5 12.5445 5.59409 10.5754 7.54158C8.60625 9.48908 7.5 12.1304 7.5 14.8846C7.5 24.2308 18 31.5 18 31.5Z" stroke="#15853D" stroke-width="2" stroke-linecap="round" stroke-linejoin="round"/>
</svg>
