<svg width="20" height="20" viewBox="0 0 20 20" fill="none" xmlns="http://www.w3.org/2000/svg">
<path d="M10 9.76205C10.9205 9.76205 11.6667 9.01585 11.6667 8.09538C11.6667 7.1749 10.9205 6.42871 10 6.42871C9.07953 6.42871 8.33334 7.1749 8.33334 8.09538C8.33334 9.01585 9.07953 9.76205 10 9.76205Z" stroke="white" stroke-width="1.5" stroke-linecap="round" stroke-linejoin="round"/>
<path d="M10 17.5C10 17.5 15.8333 13.4615 15.8333 8.26923C15.8333 6.73914 15.2188 5.27171 14.1248 4.18977C13.0308 3.10783 11.5471 2.5 10 2.5C8.4529 2.5 6.96917 3.10783 5.87521 4.18977C4.78125 5.27171 4.16666 6.73914 4.16666 8.26923C4.16666 13.4615 10 17.5 10 17.5Z" stroke="white" stroke-width="1.5" stroke-linecap="round" stroke-linejoin="round"/>
</svg>
