<svg width="40" height="40" viewBox="0 0 40 40" fill="none" xmlns="http://www.w3.org/2000/svg">
<path fill-rule="evenodd" clip-rule="evenodd" d="M19.9998 2.5C17.7085 2.5 15.8331 4.3753 15.8331 6.66661C15.8331 8.67314 17.2718 10.3601 19.1681 10.7486V15.8755C16.8072 16.0561 14.6596 16.9927 12.9621 18.4487L10.1382 15.6232C10.5749 14.9647 10.8332 14.1779 10.8332 13.3332C10.8332 11.0419 8.95787 9.16658 6.66658 9.16658C4.3753 9.16658 2.49997 11.0419 2.49997 13.3332C2.49997 15.6245 4.3753 17.4998 6.66658 17.4998C7.51184 17.4998 8.29945 17.242 8.95822 16.8048L11.7821 19.6287C10.1563 21.524 9.16633 23.9795 9.16655 26.6664C9.16698 31.9463 12.9887 36.4666 18.1948 37.3466C18.3027 37.3647 18.4132 37.3615 18.5198 37.337C18.6265 37.3124 18.7273 37.2672 18.8165 37.2037C18.9057 37.1402 18.9815 37.0598 19.0396 36.967C19.0977 36.8742 19.1369 36.7709 19.1551 36.663C19.1733 36.555 19.17 36.4446 19.1455 36.3379C19.1209 36.2312 19.0756 36.1304 19.0122 36.0413C18.9487 35.9521 18.8683 35.8763 18.7755 35.8182C18.6827 35.7601 18.5794 35.7209 18.4714 35.7027C16.2414 35.3257 14.3172 34.1656 12.9572 32.5338L14.4123 31.0787C14.5724 30.9187 14.7828 30.8313 14.9982 30.8313H24.9997C25.2203 30.8313 25.4303 30.9187 25.5905 31.0787L27.0407 32.5289C25.6805 34.1583 23.756 35.3163 21.5281 35.6929C21.4201 35.7111 21.3168 35.7503 21.224 35.8084C21.1312 35.8665 21.0508 35.9423 20.9873 36.0315C20.9238 36.1206 20.8785 36.2215 20.854 36.3281C20.8295 36.4348 20.8262 36.5453 20.8444 36.6532C20.8625 36.7612 20.9018 36.8645 20.9599 36.9573C21.018 37.05 21.0938 37.1305 21.183 37.1939C21.2721 37.2574 21.373 37.3027 21.4796 37.3272C21.5863 37.3517 21.6968 37.355 21.8047 37.3368C27.0068 36.4575 30.8301 31.9429 30.8329 26.6664C30.8344 23.978 29.8448 21.5211 28.2174 19.6254L31.0397 16.8032C31.6988 17.2411 32.4869 17.4998 33.3329 17.4998C35.6242 17.4998 37.4995 15.6245 37.4995 13.3332C37.4995 11.0419 35.6242 9.16658 33.3329 9.16658C31.0416 9.16658 29.1663 11.0419 29.1663 13.3332C29.1663 14.1785 29.4241 14.9661 29.8613 15.6248L27.039 18.4471C25.3421 16.9922 23.194 16.0566 20.8347 15.8755V10.7486C22.7294 10.3589 24.1664 8.67204 24.1664 6.66661C24.1664 4.3753 22.291 2.5 19.9998 2.5ZM19.9998 4.16665C21.3903 4.16665 22.4997 5.27605 22.4997 6.66661C22.4997 8.05718 21.3903 9.16658 19.9998 9.16658C18.6092 9.16658 17.4998 8.05718 17.4998 6.66661C17.4998 5.27605 18.6092 4.16665 19.9998 4.16665ZM6.66658 10.8332C8.05715 10.8332 9.16655 11.9426 9.16655 13.3332C9.16655 14.7238 8.05715 15.8332 6.66658 15.8332C5.27602 15.8332 4.16662 14.7238 4.16662 13.3332C4.16662 11.9426 5.27602 10.8332 6.66658 10.8332ZM33.3329 10.8332C34.7235 10.8332 35.8329 11.9426 35.8329 13.3332C35.8329 14.7238 34.7235 15.8332 33.3329 15.8332C31.9424 15.8332 30.8329 14.7238 30.8329 13.3332C30.8329 11.9426 31.9424 10.8332 33.3329 10.8332ZM19.9998 17.4998C25.0722 17.4998 29.1691 21.5945 29.1663 26.6664C29.1654 28.2791 28.7405 29.802 27.9977 31.1292L26.7689 29.9004C26.3018 29.4333 25.6661 29.1647 24.9997 29.1647H23.7139C24.5101 28.2782 24.9997 27.1117 24.9997 25.833C24.9997 23.0815 22.7496 20.8315 19.9981 20.8315C17.2466 20.8315 14.9966 23.0815 14.9966 25.833C14.9966 27.1119 15.4875 28.2782 16.284 29.1647H14.9982C14.3309 29.1647 13.6983 29.4362 13.2339 29.9004L12.0002 31.1341C11.2577 29.8053 10.8333 28.2806 10.8332 26.6664C10.8328 21.594 14.9273 17.4998 19.9998 17.4998ZM19.9981 22.4981C21.8489 22.4981 23.333 23.9823 23.333 25.833C23.333 27.6838 21.8489 29.1663 19.9981 29.1663C18.1473 29.1663 16.6648 27.6838 16.6648 25.833C16.6648 23.9823 18.1473 22.4981 19.9981 22.4981Z" fill="#15853D"/>
</svg>
