<svg width="20" height="20" viewBox="0 0 20 20" fill="none" xmlns="http://www.w3.org/2000/svg">
<path d="M10.8333 6.66667C11.4964 6.66667 12.1323 6.93006 12.6011 7.3989C13.0699 7.86774 13.3333 8.50363 13.3333 9.16667C13.3333 9.38768 13.4211 9.59964 13.5774 9.75592C13.7337 9.9122 13.9457 10 14.1667 10C14.3877 10 14.5996 9.9122 14.7559 9.75592C14.9122 9.59964 15 9.38768 15 9.16667C15 8.0616 14.561 7.00179 13.7796 6.22039C12.9982 5.43899 11.9384 5 10.8333 5C10.6123 5 10.4004 5.0878 10.2441 5.24408C10.0878 5.40036 10 5.61232 10 5.83333C10 6.05435 10.0878 6.26631 10.2441 6.42259C10.4004 6.57887 10.6123 6.66667 10.8333 6.66667Z" fill="white"/>
<path d="M10.8333 3.33317C12.3804 3.33317 13.8642 3.94775 14.9581 5.04171C16.0521 6.13568 16.6667 7.61941 16.6667 9.1665C16.6667 9.38752 16.7545 9.59948 16.9107 9.75576C17.067 9.91204 17.279 9.99984 17.5 9.99984C17.721 9.99984 17.933 9.91204 18.0892 9.75576C18.2455 9.59948 18.3333 9.38752 18.3333 9.1665C18.3333 7.17738 17.5431 5.26973 16.1366 3.8632C14.7301 2.45668 12.8224 1.6665 10.8333 1.6665C10.6123 1.6665 10.4003 1.7543 10.2441 1.91058C10.0878 2.06686 9.99999 2.27882 9.99999 2.49984C9.99999 2.72085 10.0878 2.93281 10.2441 3.08909C10.4003 3.24537 10.6123 3.33317 10.8333 3.33317ZM18.125 13.2582C18.0792 13.1244 18 13.0045 17.8951 12.9097C17.7901 12.815 17.6627 12.7485 17.525 12.7165L12.525 11.5748C12.3893 11.5441 12.248 11.5478 12.1141 11.5856C11.9802 11.6235 11.8579 11.6942 11.7583 11.7915C11.6417 11.8998 11.6333 11.9082 11.0917 12.9415C9.29432 12.1133 7.85415 10.6672 7.03332 8.8665C8.09166 8.33317 8.09999 8.33317 8.20832 8.20817C8.30558 8.10863 8.37636 7.98633 8.41421 7.85241C8.45206 7.71849 8.45576 7.57722 8.42499 7.4415L7.28332 2.49984C7.25136 2.36208 7.18487 2.23473 7.09011 2.12976C6.99535 2.0248 6.87544 1.94567 6.74166 1.89984C6.54705 1.83033 6.34608 1.78009 6.14166 1.74984C5.93103 1.701 5.7161 1.67309 5.49999 1.6665C4.48333 1.6665 3.5083 2.07037 2.78941 2.78926C2.07052 3.50815 1.66666 4.48317 1.66666 5.49984C1.67107 8.9021 3.02456 12.1637 5.43032 14.5695C7.83609 16.9753 11.0977 18.3288 14.5 18.3332C15.0034 18.3332 15.5019 18.234 15.9669 18.0414C16.432 17.8487 16.8546 17.5664 17.2106 17.2104C17.5665 16.8545 17.8489 16.4319 18.0415 15.9668C18.2342 15.5017 18.3333 15.0032 18.3333 14.4998C18.3336 14.2877 18.3169 14.0759 18.2833 13.8665C18.2483 13.6595 18.1953 13.456 18.125 13.2582ZM14.5 16.6665C11.5391 16.6643 8.70008 15.4871 6.6064 13.3934C4.51272 11.2997 3.33553 8.46074 3.33332 5.49984C3.33552 4.92588 3.5645 4.37605 3.97035 3.9702C4.3762 3.56434 4.92603 3.33537 5.49999 3.33317H5.77499L6.66666 7.19984L6.21666 7.43317C5.49999 7.80817 4.93332 8.10817 5.23332 8.75817C5.72184 10.1412 6.5123 11.3979 7.54727 12.4372C8.58224 13.4765 9.83572 14.2722 11.2167 14.7665C11.9167 15.0498 12.1917 14.5248 12.5667 13.7998L12.8083 13.3415L16.6667 14.2248V14.4998C16.6645 15.0738 16.4355 15.6236 16.0296 16.0295C15.6238 16.4353 15.074 16.6643 14.5 16.6665Z" fill="white"/>
</svg>
